<svg width="676" height="199" viewBox="0 0 676 199" fill="none" xmlns="http://www.w3.org/2000/svg">
<path d="M97.5498 156.303L25.0698 79.853L25.3398 79.373C25.9198 79.373 26.4898 79.2729 27.0698 79.2729H123.35C125.8 79.2729 125.95 79.443 125.11 81.743C120.863 93.343 116.603 104.94 112.33 116.533C107.777 128.933 103.233 141.336 98.6998 153.743C98.4598 154.433 98.1298 155.013 97.5498 156.303Z" fill="#C072E0"/>
<path d="M202.82 3.23302L132.82 70.063L132.35 69.843C132.35 68.973 132.21 68.103 132.21 67.223C132.21 48.4764 132.21 29.723 132.21 10.963C132.21 7.80302 132.21 4.64302 132.13 1.48302C132.13 0.313021 132.6 -0.0369787 133.64 0.00302126L155.71 0.833021C160.08 1.00302 164.46 1.22302 168.83 1.36302C177.83 1.66302 186.83 1.90302 195.83 2.20302C198 2.27302 200.18 2.47302 202.35 2.61302L202.82 3.23302Z" fill="#C072E0"/>
<path d="M61.46 74.0129L127.05 4.21289C127.14 5.35289 127.23 5.97289 127.23 6.59289C127.23 28.3862 127.23 50.1762 127.23 71.9629C127.23 73.7729 126.57 74.2229 124.88 74.2129C104.3 74.1729 83.7233 74.1729 63.15 74.2129C62.72 74.1929 62.27 74.1029 61.46 74.0129Z" fill="#C072E0"/>
<path d="M20.8701 43.083C20.8701 36.503 20.8701 29.923 20.8701 23.343C20.8701 21.703 21.3801 21.083 23.0601 21.093C26.6501 21.093 30.2401 20.903 33.8301 20.983C34.8414 21.0972 35.7798 21.5646 36.4801 22.303C41.6501 27.793 46.7401 33.373 51.8501 38.923C57.2501 44.793 62.6201 50.683 68.0801 56.493C69.0801 57.573 69.2001 58.233 68.1301 59.313C63.7401 63.713 59.4901 68.233 55.0501 72.583C54.1069 73.4875 52.8743 74.0295 51.5701 74.113C42.1401 74.253 32.6901 74.173 23.2501 74.263C21.4301 74.263 21.1401 73.453 21.1501 71.933C21.1501 62.323 21.1501 52.703 21.1501 43.083H20.8701Z" fill="#C072E0"/>
<path d="M127.27 92.3329V198.863C126.552 198.677 125.849 198.433 125.17 198.133C115.27 192.773 105.39 187.373 95.4803 182.033C94.2403 181.363 94.2803 180.553 94.6803 179.463C98.5269 169.083 102.367 158.696 106.2 148.303C111.42 134.07 116.617 119.833 121.79 105.593C123.21 101.713 124.58 97.8029 125.99 93.9129C126.226 93.3324 126.493 92.7649 126.79 92.2129L127.27 92.3329Z" fill="#C072E0"/>
<path d="M176.81 35.3431C178.38 33.7731 179.93 32.1831 181.54 30.6531C186.37 26.0231 191.34 21.5531 196.02 16.7731C198.57 14.1631 200.97 12.9731 204.35 15.0831C205.737 15.7748 207.174 16.3598 208.65 16.8331L177.04 35.5431L176.81 35.3431Z" fill="#C072E0"/>
<path d="M15.89 25.1632C15.9892 25.6116 16.0594 26.0658 16.1 26.5232C16.1 30.3532 16.1 34.1832 16.1 38.0132C16.1 39.1132 15.73 39.7732 14.55 39.7632L0.549999 39.5632C0.449999 39.5632 0.36 39.4132 0 39.1232L15.39 24.8032L15.89 25.1632Z" fill="#C072E0"/>
<path d="M231.65 24L231.65 174" stroke="#2B0D3E" stroke-width="4"/>
<path d="M282.238 69.66C278.718 69.66 275.44 69.088 272.404 67.944C269.412 66.756 266.794 65.106 264.55 62.994C262.35 60.838 260.634 58.308 259.402 55.404C258.17 52.5 257.554 49.332 257.554 45.9C257.554 42.468 258.17 39.3 259.402 36.396C260.634 33.492 262.372 30.984 264.616 28.872C266.86 26.716 269.478 25.066 272.47 23.922C275.462 22.734 278.74 22.14 282.304 22.14C286.088 22.14 289.542 22.8 292.666 24.12C295.79 25.396 298.43 27.31 300.586 29.862L295.042 35.076C293.37 33.272 291.5 31.93 289.432 31.05C287.364 30.126 285.12 29.664 282.7 29.664C280.28 29.664 278.058 30.06 276.034 30.852C274.054 31.644 272.316 32.766 270.82 34.218C269.368 35.67 268.224 37.386 267.388 39.366C266.596 41.346 266.2 43.524 266.2 45.9C266.2 48.276 266.596 50.454 267.388 52.434C268.224 54.414 269.368 56.13 270.82 57.582C272.316 59.034 274.054 60.156 276.034 60.948C278.058 61.74 280.28 62.136 282.7 62.136C285.12 62.136 287.364 61.696 289.432 60.816C291.5 59.892 293.37 58.506 295.042 56.658L300.586 61.938C298.43 64.446 295.79 66.36 292.666 67.68C289.542 69 286.066 69.66 282.238 69.66ZM319.579 69V50.718L321.493 55.998L301.429 22.8H310.603L326.707 49.53H321.559L337.795 22.8H346.243L326.179 55.998L328.159 50.718V69H319.579ZM351.282 69V22.8H372.93C378.474 22.8 382.698 23.9 385.602 26.1C388.506 28.256 389.958 31.16 389.958 34.812C389.958 37.276 389.386 39.388 388.242 41.148C387.098 42.864 385.558 44.206 383.622 45.174C381.73 46.098 379.662 46.56 377.418 46.56L378.606 44.184C381.202 44.184 383.534 44.668 385.602 45.636C387.67 46.56 389.298 47.924 390.486 49.728C391.718 51.532 392.334 53.776 392.334 56.46C392.334 60.42 390.816 63.5 387.78 65.7C384.744 67.9 380.234 69 374.25 69H351.282ZM359.862 62.268H373.722C376.934 62.268 379.398 61.74 381.114 60.684C382.83 59.628 383.688 57.934 383.688 55.602C383.688 53.314 382.83 51.642 381.114 50.586C379.398 49.486 376.934 48.936 373.722 48.936H359.202V42.27H372.006C374.998 42.27 377.286 41.742 378.87 40.686C380.498 39.63 381.312 38.046 381.312 35.934C381.312 33.778 380.498 32.172 378.87 31.116C377.286 30.06 374.998 29.532 372.006 29.532H359.862V62.268ZM409.411 42.006H432.379V49.068H409.411V42.006ZM410.071 61.806H436.141V69H401.491V22.8H435.217V29.994H410.071V61.806ZM445.705 69V22.8H464.713C468.805 22.8 472.303 23.46 475.207 24.78C478.155 26.1 480.421 27.992 482.005 30.456C483.589 32.92 484.381 35.846 484.381 39.234C484.381 42.622 483.589 45.548 482.005 48.012C480.421 50.432 478.155 52.302 475.207 53.622C472.303 54.898 468.805 55.536 464.713 55.536H450.457L454.285 51.642V69H445.705ZM475.933 69L464.251 52.236H473.425L485.173 69H475.933ZM454.285 52.566L450.457 48.474H464.317C468.101 48.474 470.939 47.66 472.831 46.032C474.767 44.404 475.735 42.138 475.735 39.234C475.735 36.286 474.767 34.02 472.831 32.436C470.939 30.852 468.101 30.06 464.317 30.06H450.457L454.285 25.836V52.566ZM493.981 69V22.8H502.561V61.74H526.717V69H493.981ZM527.021 69L547.811 22.8H556.259L577.115 69H568.139L550.253 27.354H553.685L535.865 69H527.021ZM536.591 58.308L538.901 51.576H563.849L566.159 58.308H536.591ZM582.991 69V22.8H604.639C610.183 22.8 614.407 23.9 617.311 26.1C620.215 28.256 621.667 31.16 621.667 34.812C621.667 37.276 621.095 39.388 619.951 41.148C618.807 42.864 617.267 44.206 615.331 45.174C613.439 46.098 611.371 46.56 609.127 46.56L610.315 44.184C612.911 44.184 615.243 44.668 617.311 45.636C619.379 46.56 621.007 47.924 622.195 49.728C623.427 51.532 624.043 53.776 624.043 56.46C624.043 60.42 622.525 63.5 619.489 65.7C616.453 67.9 611.943 69 605.959 69H582.991ZM591.571 62.268H605.431C608.643 62.268 611.107 61.74 612.823 60.684C614.539 59.628 615.397 57.934 615.397 55.602C615.397 53.314 614.539 51.642 612.823 50.586C611.107 49.486 608.643 48.936 605.431 48.936H590.911V42.27H603.715C606.707 42.27 608.995 41.742 610.579 40.686C612.207 39.63 613.021 38.046 613.021 35.934C613.021 33.778 612.207 32.172 610.579 31.116C608.995 30.06 606.707 29.532 603.715 29.532H591.571V62.268ZM647.522 69.66C643.914 69.66 640.46 69.154 637.16 68.142C633.86 67.086 631.242 65.744 629.306 64.116L632.276 57.45C634.124 58.902 636.412 60.112 639.14 61.08C641.868 62.048 644.662 62.532 647.522 62.532C649.942 62.532 651.9 62.268 653.396 61.74C654.892 61.212 655.992 60.508 656.696 59.628C657.4 58.704 657.752 57.67 657.752 56.526C657.752 55.118 657.246 53.996 656.234 53.16C655.222 52.28 653.902 51.598 652.274 51.114C650.69 50.586 648.908 50.102 646.928 49.662C644.992 49.222 643.034 48.716 641.054 48.144C639.118 47.528 637.336 46.758 635.708 45.834C634.124 44.866 632.826 43.59 631.814 42.006C630.802 40.422 630.296 38.398 630.296 35.934C630.296 33.426 630.956 31.138 632.276 29.07C633.64 26.958 635.686 25.286 638.414 24.054C641.186 22.778 644.684 22.14 648.908 22.14C651.68 22.14 654.43 22.492 657.158 23.196C659.886 23.9 662.262 24.912 664.286 26.232L661.58 32.898C659.512 31.666 657.378 30.764 655.178 30.192C652.978 29.576 650.866 29.268 648.842 29.268C646.466 29.268 644.53 29.554 643.034 30.126C641.582 30.698 640.504 31.446 639.8 32.37C639.14 33.294 638.81 34.35 638.81 35.538C638.81 36.946 639.294 38.09 640.262 38.97C641.274 39.806 642.572 40.466 644.156 40.95C645.784 41.434 647.588 41.918 649.568 42.402C651.548 42.842 653.506 43.348 655.442 43.92C657.422 44.492 659.204 45.24 660.788 46.164C662.416 47.088 663.714 48.342 664.682 49.926C665.694 51.51 666.2 53.512 666.2 55.932C666.2 58.396 665.518 60.684 664.154 62.796C662.834 64.864 660.788 66.536 658.016 67.812C655.244 69.044 651.746 69.66 647.522 69.66Z" fill="#2B0D3E"/>
<path d="M260.854 170V123.8H269.434V170H260.854ZM281.93 170V123.8H288.992L317.966 159.374H314.468V123.8H322.982V170H315.92L286.946 134.426H290.444V170H281.93ZM335.362 170V123.8H355.558C360.574 123.8 364.974 124.768 368.758 126.704C372.542 128.64 375.49 131.324 377.602 134.756C379.714 138.188 380.77 142.236 380.77 146.9C380.77 151.52 379.714 155.568 377.602 159.044C375.49 162.476 372.542 165.16 368.758 167.096C364.974 169.032 360.574 170 355.558 170H335.362ZM343.942 162.74H355.162C358.638 162.74 361.63 162.08 364.138 160.76C366.69 159.44 368.648 157.592 370.012 155.216C371.42 152.84 372.124 150.068 372.124 146.9C372.124 143.688 371.42 140.916 370.012 138.584C368.648 136.208 366.69 134.36 364.138 133.04C361.63 131.72 358.638 131.06 355.162 131.06H343.942V162.74ZM389.889 170V123.8H398.469V170H389.889ZM404.431 170L425.221 123.8H433.669L454.525 170H445.549L427.663 128.354H431.095L413.275 170H404.431ZM414.001 159.308L416.311 152.576H441.259L443.569 159.308H414.001Z" fill="#2B0D3E"/>
<path d="M480.157 121C480.157 114.838 475.162 109.843 469 109.843C462.838 109.843 457.843 114.838 457.843 121C457.843 127.162 462.838 132.157 469 132.157C475.162 132.157 480.157 127.162 480.157 121ZM483 121C483 128.732 476.732 135 469 135C461.268 135 455 128.732 455 121C455 113.268 461.268 107 469 107C476.732 107 483 113.268 483 121Z" fill="#2B0D3E"/>
<path d="M468.232 119.862C469.014 119.862 469.583 119.705 469.924 119.407C470.265 119.123 470.45 118.639 470.45 117.957C470.45 117.289 470.265 116.82 469.924 116.522C469.583 116.237 469.014 116.095 468.232 116.095H466.641V119.862H468.232ZM466.641 122.463V128.006H462.86V113.352H468.63C470.563 113.352 471.971 113.679 472.866 114.333C473.776 114.972 474.216 115.996 474.216 117.403C474.216 118.369 473.989 119.165 473.52 119.791C473.051 120.402 472.354 120.871 471.402 121.155C471.928 121.283 472.383 121.553 472.795 121.965C473.207 122.377 473.619 123.003 474.031 123.856L476.092 128.006H472.07L470.279 124.367C469.924 123.642 469.554 123.131 469.185 122.875C468.815 122.605 468.318 122.463 467.707 122.463H466.641Z" fill="#2B0D3E"/>
</svg>
