<svg width="209" height="199" viewBox="0 0 209 199" fill="none" xmlns="http://www.w3.org/2000/svg">
<path d="M97.5498 156.303L25.0698 79.853L25.3398 79.373C25.9198 79.373 26.4898 79.2729 27.0698 79.2729H123.35C125.8 79.2729 125.95 79.443 125.11 81.743C120.863 93.343 116.603 104.94 112.33 116.533C107.777 128.933 103.233 141.336 98.6998 153.743C98.4598 154.433 98.1298 155.013 97.5498 156.303Z" fill="#C072E0"/>
<path d="M202.82 3.23302L132.82 70.063L132.35 69.843C132.35 68.973 132.21 68.103 132.21 67.223C132.21 48.4764 132.21 29.723 132.21 10.963C132.21 7.80302 132.21 4.64302 132.13 1.48302C132.13 0.313021 132.6 -0.0369787 133.64 0.00302126L155.71 0.833021C160.08 1.00302 164.46 1.22302 168.83 1.36302C177.83 1.66302 186.83 1.90302 195.83 2.20302C198 2.27302 200.18 2.47302 202.35 2.61302L202.82 3.23302Z" fill="#C072E0"/>
<path d="M61.46 74.0129L127.05 4.21289C127.14 5.35289 127.23 5.97289 127.23 6.59289C127.23 28.3862 127.23 50.1762 127.23 71.9629C127.23 73.7729 126.57 74.2229 124.88 74.2129C104.3 74.1729 83.7233 74.1729 63.15 74.2129C62.72 74.1929 62.27 74.1029 61.46 74.0129Z" fill="#C072E0"/>
<path d="M20.8701 43.083C20.8701 36.503 20.8701 29.923 20.8701 23.343C20.8701 21.703 21.3801 21.083 23.0601 21.093C26.6501 21.093 30.2401 20.903 33.8301 20.983C34.8414 21.0972 35.7798 21.5646 36.4801 22.303C41.6501 27.793 46.7401 33.373 51.8501 38.923C57.2501 44.793 62.6201 50.683 68.0801 56.493C69.0801 57.573 69.2001 58.233 68.1301 59.313C63.7401 63.713 59.4901 68.233 55.0501 72.583C54.1069 73.4875 52.8743 74.0295 51.5701 74.113C42.1401 74.253 32.6901 74.173 23.2501 74.263C21.4301 74.263 21.1401 73.453 21.1501 71.933C21.1501 62.323 21.1501 52.703 21.1501 43.083H20.8701Z" fill="#C072E0"/>
<path d="M127.27 92.3329V198.863C126.552 198.677 125.849 198.433 125.17 198.133C115.27 192.773 105.39 187.373 95.4803 182.033C94.2403 181.363 94.2803 180.553 94.6803 179.463C98.5269 169.083 102.367 158.696 106.2 148.303C111.42 134.07 116.617 119.833 121.79 105.593C123.21 101.713 124.58 97.8029 125.99 93.9129C126.226 93.3324 126.493 92.7649 126.79 92.2129L127.27 92.3329Z" fill="#C072E0"/>
<path d="M176.81 35.3431C178.38 33.7731 179.93 32.1831 181.54 30.6531C186.37 26.0231 191.34 21.5531 196.02 16.7731C198.57 14.1631 200.97 12.9731 204.35 15.0831C205.737 15.7748 207.174 16.3598 208.65 16.8331L177.04 35.5431L176.81 35.3431Z" fill="#C072E0"/>
<path d="M15.89 25.1632C15.9892 25.6116 16.0594 26.0658 16.1 26.5232C16.1 30.3532 16.1 34.1832 16.1 38.0132C16.1 39.1132 15.73 39.7732 14.55 39.7632L0.549999 39.5632C0.449999 39.5632 0.36 39.4132 0 39.1232L15.39 24.8032L15.89 25.1632Z" fill="#C072E0"/>
</svg>
